<svg id="Calque_1" data-name="Calque 1" xmlns="http://www.w3.org/2000/svg" viewBox="0 0 269.39 42.96"><defs><style>.cls-1{fill:#fff;}</style></defs><circle class="cls-1" cx="257.98" cy="28.75" r="11.41"/><path class="cls-1" d="M17.16,2.52q15.66,0,15.66,11.16a10.41,10.41,0,0,1-4.26,8.94q-4.26,3.12-12.24,3.12-1.32,0-3.84-.18V38.28A8.94,8.94,0,0,0,17,40.2l-.42,2.34H0l.24-2.46a6.6,6.6,0,0,0,3.42-1.8V6.78A9.94,9.94,0,0,0,0,4.86L.24,2.52ZM23.52,13.8a7.85,7.85,0,0,0-1.89-5.64,6.31,6.31,0,0,0-4.77-2,29.83,29.83,0,0,0-4.38.24V22h3.9Q23.52,22,23.52,13.8Z"/><path class="cls-1" d="M39.3,39.12Q35.64,35.28,35.64,28T39.3,16.83Q43,13,50.1,13t10.77,3.81Q64.5,20.64,64.5,28T60.87,39.12Q57.24,43,50.1,43T39.3,39.12ZM50.1,16.38a4.48,4.48,0,0,0-4.32,2.7q-1.32,2.7-1.32,8.91t1.32,8.91a4.48,4.48,0,0,0,4.32,2.7,4.42,4.42,0,0,0,4.29-2.73q1.29-2.73,1.29-8.91t-1.29-8.88A4.42,4.42,0,0,0,50.1,16.38Z"/><path class="cls-1" d="M72.54,21.3a4.09,4.09,0,0,0-.84-3,4.6,4.6,0,0,0-2.94-.93l.18-2.34q9-1.68,10.26-2l1.08.54.48,4q3.06-4.44,7.74-4.44a5.75,5.75,0,0,1,4,1.59,5.05,5.05,0,0,1,1.71,3.84A4.71,4.71,0,0,1,93,22a4,4,0,0,1-3,1.23,3.32,3.32,0,0,1-2.82-1.5,3.16,3.16,0,0,0,.84-2,1.86,1.86,0,0,0-.81-1.56,3.18,3.18,0,0,0-2-.6A3.72,3.72,0,0,0,83,18.63a7.29,7.29,0,0,0-2,2.73V38.58a9.37,9.37,0,0,0,3.6,1.62l-.24,2.34H69.18l.18-2.46a6.38,6.38,0,0,0,3.18-1.5Z"/><path class="cls-1" d="M106.92,42.78A7.85,7.85,0,0,1,101.64,41a6.56,6.56,0,0,1-2-5.28v-18H95.34V15a15.88,15.88,0,0,0,8.94-7.5h3.9v6.36h7.68v3.9h-7.74V35.28q0,3.18,2.88,3.18a7.54,7.54,0,0,0,4.32-1.5l1.2,2.1A13.93,13.93,0,0,1,106.92,42.78Z"/><path class="cls-1" d="M140.7,8.82h-4.38a14.25,14.25,0,0,0-1.26-5,2.66,2.66,0,0,0-2.43-1.47,2.91,2.91,0,0,0-2.52,1.35,5.08,5.08,0,0,0-.93,2.94,16,16,0,0,0,.6,3.9,15.22,15.22,0,0,1,.6,3.33h6.24v3.78h-6.24V38.82a13.17,13.17,0,0,0,5.16,1.68l-.18,2H117.72l.24-2.16a8.57,8.57,0,0,0,4-1.56V17.64h-4.74l-.3-2.4a19.71,19.71,0,0,0,5-1.38V11.22A11,11,0,0,1,125,3.12,10.3,10.3,0,0,1,132.63,0a14.87,14.87,0,0,1,8.07,2.22Z"/><path class="cls-1" d="M142.56,39.12Q138.9,35.28,138.9,28t3.66-11.13Q146.22,13,153.36,13t10.77,3.81q3.63,3.81,3.63,11.13t-3.63,11.16Q160.5,43,153.36,43T142.56,39.12Zm10.8-22.74a4.48,4.48,0,0,0-4.32,2.7q-1.32,2.7-1.32,8.91T149,36.9a4.48,4.48,0,0,0,4.32,2.7,4.42,4.42,0,0,0,4.29-2.73q1.29-2.73,1.29-8.91t-1.29-8.88A4.42,4.42,0,0,0,153.36,16.38Z"/><path class="cls-1" d="M175.38,9.06a4.3,4.3,0,0,0-.81-3,4.46,4.46,0,0,0-2.91-.93l.18-2.34q.78-.18,3.24-.54,5.82-1,7.74-1.5l1.08.6V38.58a8.46,8.46,0,0,0,3.78,1.62l-.18,2.34H172l.24-2.46a6.34,6.34,0,0,0,3.12-1.5Z"/><path class="cls-1" d="M194.46,21.3a4.19,4.19,0,0,0-.81-3,4.46,4.46,0,0,0-2.91-.93l.18-2.34q.78-.18,3.24-.6,5.82-.9,7.74-1.44l1,.54v25a9.37,9.37,0,0,0,3.84,1.62l-.24,2.34H191.1l.24-2.46a6.34,6.34,0,0,0,3.12-1.5Zm4.35-20.16q4.77,0,4.77,4.2t-4.77,4.2q-4.77,0-4.77-4.2T198.81,1.14Z"/><path class="cls-1" d="M214,39.12q-3.66-3.84-3.66-11.16T214,16.83Q217.68,13,224.82,13t10.77,3.81q3.63,3.81,3.63,11.13t-3.63,11.16Q232,43,224.82,43T214,39.12Zm10.8-22.74a4.48,4.48,0,0,0-4.32,2.7q-1.32,2.7-1.32,8.91t1.32,8.91a4.48,4.48,0,0,0,4.32,2.7,4.42,4.42,0,0,0,4.29-2.73q1.29-2.73,1.29-8.91t-1.29-8.88A4.42,4.42,0,0,0,224.82,16.38Z"/></svg>